<?xml version="1.0" encoding="UTF-8" standalone="no"?>
<svg
   xmlns:dc="http://purl.org/dc/elements/1.1/"
   xmlns:cc="http://creativecommons.org/ns#"
   xmlns:rdf="http://www.w3.org/1999/02/22-rdf-syntax-ns#"
   xmlns:svg="http://www.w3.org/2000/svg"
   xmlns="http://www.w3.org/2000/svg"
   xmlns:sodipodi="http://sodipodi.sourceforge.net/DTD/sodipodi-0.dtd"
   xmlns:inkscape="http://www.inkscape.org/namespaces/inkscape"
   width="134.75954"
   height="134.75052"
   viewBox="0 0 134.75954 134.75052"
   version="1.1"
   xml:space="preserve"
   style="clip-rule:evenodd;fill-rule:evenodd;stroke-linecap:round;stroke-linejoin:round;stroke-miterlimit:1.5"
   id="svg49"
   sodipodi:docname="asciidoctor.svg"
   inkscape:version="0.92.3 (2405546, 2018-03-11)"
   inkscape:export-filename="V:\dev\github\skb\site\src\images\asciidoctor.png"
   inkscape:export-xdpi="600.04303"
   inkscape:export-ydpi="600.04303"><metadata
   id="metadata55"><rdf:RDF><cc:Work
       rdf:about=""><dc:format>image/svg+xml</dc:format><dc:type
         rdf:resource="http://purl.org/dc/dcmitype/StillImage" /><dc:title /></cc:Work></rdf:RDF></metadata><defs
   id="defs53">
        
    
            
            
            
            
            
        
                
            
                
            
                
            
                
                
            
                    
                    
                    
                    
                
                    
                
                    
                
                    
                
                    
                
                        
                    
                        
                    
                        
                    
                        
                    </defs><sodipodi:namedview
   pagecolor="#ffffff"
   bordercolor="#666666"
   borderopacity="1"
   objecttolerance="10"
   gridtolerance="10"
   guidetolerance="10"
   inkscape:pageopacity="0"
   inkscape:pageshadow="2"
   inkscape:window-width="741"
   inkscape:window-height="418"
   id="namedview51"
   showgrid="false"
   fit-margin-top="0"
   fit-margin-left="0"
   fit-margin-right="0"
   fit-margin-bottom="0"
   inkscape:zoom="0.48881822"
   inkscape:cx="-18.634674"
   inkscape:cy="-20.191628"
   inkscape:window-x="140"
   inkscape:window-y="140"
   inkscape:window-maximized="0"
   inkscape:current-layer="svg49" />
    <rect
   style="opacity:1;fill:#ffffff;fill-opacity:1;fill-rule:evenodd;stroke:none;stroke-width:1.13385832;stroke-linecap:round;stroke-linejoin:round;stroke-miterlimit:10;stroke-dasharray:none;stroke-dashoffset:0;stroke-opacity:1"
   id="rect816"
   width="203.5029"
   height="186.49545"
   x="-23.458548"
   y="-16.55711"
   ry="36.355801"
   inkscape:export-xdpi="600.04303"
   inkscape:export-ydpi="600.04303" /><rect
   x="-274.62607"
   y="-101.04925"
   width="511.98279"
   height="511.98279"
   style="fill:none;stroke-width:1.44660997"
   id="rect2" /><path
   d="m 101.4534,0 c 18.38307,0 33.30613,14.92006 33.30613,33.30013 v 68.15026 c 0,18.38008 -14.92406,33.30013 -33.30613,33.30013 H 33.30613 C 14.92406,134.75052 0,119.83047 0,101.45039 V 33.30013 C 0,14.92006 14.92406,0 33.30613,0 Z M 61.95724,86.85034 c 0.083,0 0.165,0 0.248,0 0.165,-0.01 0.33,-0.03 0.49301,-0.05 0.573,-0.08 1.131,-0.26 1.646,-0.53 0.44,-0.23001 0.84801,-0.51001 1.20701,-0.86001 0.539,-0.51 0.965,-1.14 1.241,-1.83001 0.277,-0.69 0.403,-1.44 0.367,-2.18 -0.023,-0.50001 -0.118,-0.99001 -0.28,-1.46001 -0.216,-0.63 -0.553,-1.21 -0.986,-1.71001 -0.433,-0.5 -0.96201,-0.91 -1.54901,-1.22 -0.441,-0.22 -0.914,-0.39 -1.401,-0.48 -0.163,-0.03 -0.32601,-0.06 -0.49101,-0.07 -0.082,-0.01 -0.165,-0.01 -0.247,-0.02 -0.083,0 -0.165,0 -0.248,0 H 31.64612 c -0.083,0 -0.165,0 -0.248,0 -0.165,0.01 -0.33,0.02 -0.493,0.05 -0.655,0.09 -1.291,0.31 -1.86301,0.64 -0.43,0.25 -0.823,0.56 -1.166,0.92 -0.513,0.54001 -0.909,1.19001 -1.152,1.89001 -0.24401,0.7 -0.33401,1.46001 -0.26301,2.20001 0.047,0.49 0.165,0.98 0.35001,1.44 0.245,0.61001 0.609,1.18001 1.065,1.66001 0.457,0.48 1.005,0.87 1.60601,1.14001 0.451,0.21 0.932,0.35 1.423,0.42 0.163,0.02 0.328,0.04 0.493,0.05 0.083,0 0.165,0 0.248,0 h 9.51304 l -5.40102,13.06005 c -0.074,0.18 -0.144,0.37 -0.199,0.57 -0.147,0.52 -0.212,1.06 -0.194,1.60001 0.023,0.67 0.178,1.34 0.454,1.95 0.249,0.55001 0.594,1.06001 1.017,1.50001 0.56401,0.58 1.26201,1.02 2.02601,1.29001 0.70101,0.24 1.45201,0.33 2.19001,0.26 0.469,-0.04 0.932,-0.15 1.37301,-0.32 0.503,-0.19001 0.976,-0.46001 1.397,-0.79001 0.474,-0.38 0.88001,-0.84 1.19601,-1.36 0.141,-0.23 0.257,-0.47001 0.365,-0.72001 l 7.04903,-17.04006 z m 1.61901,-26.2501 7.58603,-18.56008 25.3611,61.83024 c 0.143,0.32001 0.17,0.40001 0.348,0.70001 0.267,0.45 0.6,0.85 0.986,1.2 0.386,0.35 0.82501,0.64 1.29601,0.85 0.472,0.22001 0.976,0.37001 1.491,0.44001 1.16201,0.16 2.36301,-0.09 3.37002,-0.69001 0.446,-0.27 0.851,-0.6 1.199,-0.99 0.434,-0.48 0.777,-1.05 1.00501,-1.65001 0.32,-0.86 0.411,-1.79 0.261,-2.69001 -0.042,-0.25 -0.104,-0.51 -0.185,-0.75 -0.04,-0.13 -0.089,-0.25 -0.13401,-0.37 L 75.9723,26.3101 c -0.053,-0.11 -0.102,-0.23 -0.159,-0.35 -0.172,-0.34 -0.38201,-0.67 -0.62601,-0.96 -0.65,-0.80001 -1.536,-1.40001 -2.52001,-1.69001 -0.246,-0.08 -0.496,-0.13 -0.75,-0.17 -0.127,-0.02 -0.255,-0.03 -0.383,-0.05 -0.128,0 -0.256,0 -0.384,-0.01 -0.128,0.01 -0.257,0.01 -0.385,0.02 -0.256,0.01 -0.51001,0.05 -0.76001,0.11 -1.13,0.26 -2.159,0.89 -2.89001,1.79001 -0.243,0.3 -0.453,0.62 -0.625,0.97 -0.057,0.11 -0.105,0.23 -0.158,0.35 L 52.3232,60.60024 H 39.16215 c -0.082,0 -0.165,0 -0.248,0 -0.165,0.01 -0.329,0.03 -0.493,0.05 -0.655,0.1 -1.29,0.32 -1.86301,0.65 -0.429,0.24 -0.823,0.55 -1.165,0.91 -0.342,0.36 -0.633,0.77 -0.86,1.21001 -0.34101,0.66 -0.53801,1.4 -0.57301,2.14 -0.036,0.74001 0.09,1.49001 0.367,2.18001 0.24601,0.62001 0.60901,1.18001 1.06601,1.66001 0.456,0.48 1.004,0.87 1.60601,1.14 0.451,0.21 0.931,0.35001 1.422,0.42001 0.164,0.03 0.328,0.04 0.493,0.05 0.083,0 0.166,0 0.248,0.01 h 30.31112 c 0.083,-0.01 0.166,-0.01 0.248,-0.01 0.165,-0.01 0.33,-0.02 0.494,-0.05 0.49001,-0.07 0.97101,-0.21001 1.42201,-0.42001 0.602,-0.27 1.149,-0.66 1.60601,-1.14 0.456,-0.48 0.82,-1.04 1.066,-1.66001 0.184,-0.46 0.302,-0.94 0.349,-1.44 0.047,-0.49 0.023,-0.99001 -0.07,-1.48001 -0.141,-0.73 -0.44,-1.43 -0.872,-2.03001 -0.432,-0.61 -0.99401,-1.12 -1.63801,-1.49 -0.502,-0.29 -1.051,-0.5 -1.619,-0.61 -0.16201,-0.03 -0.32601,-0.05 -0.49101,-0.07 -0.082,-0.01 -0.164,-0.01 -0.247,-0.02 h -0.248 z"
   style="fill:#ff0040;stroke-width:1.00000393"
   id="path40"
   inkscape:connector-curvature="0" />
</svg>