<?xml version="1.0" encoding="UTF-8" standalone="no"?>
<svg
   xmlns:dc="http://purl.org/dc/elements/1.1/"
   xmlns:cc="http://creativecommons.org/ns#"
   xmlns:rdf="http://www.w3.org/1999/02/22-rdf-syntax-ns#"
   xmlns:svg="http://www.w3.org/2000/svg"
   xmlns="http://www.w3.org/2000/svg"
   xmlns:sodipodi="http://sodipodi.sourceforge.net/DTD/sodipodi-0.dtd"
   xmlns:inkscape="http://www.inkscape.org/namespaces/inkscape"
   viewBox="0 0 114.2453 29.999999"
   height="8.4666662mm"
   width="32.242561mm"
   version="1.1"
   id="svg6"
   sodipodi:docname="mastodon.svg"
   inkscape:version="0.92.3 (2405546, 2018-03-11)">
  <metadata
     id="metadata12">
    <rdf:RDF>
      <cc:Work
         rdf:about="">
        <dc:format>image/svg+xml</dc:format>
        <dc:type
           rdf:resource="http://purl.org/dc/dcmitype/StillImage" />
        <dc:title></dc:title>
      </cc:Work>
    </rdf:RDF>
  </metadata>
  <defs
     id="defs10" />
  <sodipodi:namedview
     pagecolor="#ffffff"
     bordercolor="#666666"
     borderopacity="1"
     objecttolerance="10"
     gridtolerance="10"
     guidetolerance="10"
     inkscape:pageopacity="0"
     inkscape:pageshadow="2"
     inkscape:window-width="1920"
     inkscape:window-height="1055"
     id="namedview8"
     showgrid="false"
     showguides="false"
     inkscape:zoom="11.611528"
     inkscape:cx="60.930826"
     inkscape:cy="15.999999"
     inkscape:window-x="-9"
     inkscape:window-y="-9"
     inkscape:window-maximized="1"
     inkscape:current-layer="svg6"
     fit-margin-top="0"
     fit-margin-left="0"
     fit-margin-right="0"
     fit-margin-bottom="0" />
  <g
     id="g817"
     transform="scale(0.15500186)"
     style="stroke-width:6.45153522">
    <rect
       ry="23.011845"
       y="0"
       x="0"
       height="193.54607"
       width="737.05762"
       id="rect14"
       style="opacity:1;fill:#282c37;fill-opacity:1;fill-rule:evenodd;stroke:none;stroke-width:6.85793209;stroke-linecap:round;stroke-linejoin:round;stroke-miterlimit:10;stroke-dasharray:none;stroke-dashoffset:0;stroke-opacity:1" />
    <path
       style="fill:#3088d4;stroke-width:6.45153522"
       inkscape:connector-curvature="0"
       id="path2"
       d="m 171.80476,115.19726 c -2.4125,12.40625 -21.5975,25.9825 -43.63375,28.61375 -11.49125,1.3725 -22.80375,2.63125 -34.8675,2.07875 -19.73,-0.90375 -35.2975,-4.71 -35.2975,-4.71 0,1.92125 0.11875,3.75 0.355,5.46 2.565,19.47 19.3075,20.6375 35.16625,21.18125 16.00625,0.5475 30.2575,-3.9475 30.2575,-3.9475 l 0.65875,14.4725 c 0,0 -11.19625,6.01125 -31.14,7.11625 -10.99875,0.605 -24.65375,-0.27625 -40.56,-4.485 -34.495,-9.13125 -40.4275,-45.90125 -41.335,-83.211249 -0.2775,-11.0775 -0.10625,-21.52375 -0.10625,-30.25875 0,-38.1525 24.99625,-49.335 24.99625,-49.335 12.60375,-5.78875 34.23125,-8.2224998 56.715,-8.4062498 h 0.5525 c 22.48375,0.18375 44.125,2.6174998 56.72875,8.4062498 0,0 24.99625,11.1825 24.99625,49.335 0,0 0.3125,28.1475 -3.48625,47.689999" />
    <path
       style="fill:#ffffff;stroke-width:6.45153522"
       inkscape:connector-curvature="0"
       id="path4"
       d="m 45.90751,58.260011 c 0,-5.55375 4.5025,-10.055 10.055,-10.055 5.55375,0 10.055,4.50125 10.055,10.055 0,5.5525 -4.50125,10.055 -10.055,10.055 -5.5525,0 -10.055,-4.5025 -10.055,-10.055 m 144.20725,12.20575 V 116.66076 H 171.81351 V 71.823261 c 0,-9.4525 -3.9775,-14.24875 -11.9325,-14.24875 -8.79375,0 -13.2025,5.69125 -13.2025,16.94375 v 24.54125 h -18.19375 v -24.54125 c 0,-11.2525 -4.40875,-16.94375 -13.2025,-16.94375 -7.955,0 -11.9325,4.79625 -11.9325,14.24875 V 116.66076 H 85.04851 V 70.465761 c 0,-9.44125 2.40375,-16.94375 7.2325,-22.495 4.98,-5.55 11.50125,-8.395 19.595,-8.395 9.36625,0 16.45875,3.59875 21.14625,10.79875 l 4.56,7.6425 4.55875,-7.6425 c 4.68875,-7.2 11.78,-10.79875 21.1475,-10.79875 8.09375,0 14.61375,2.845 19.59375,8.395 4.82875,5.55125 7.2325,13.05375 7.2325,22.495 m 63.048,22.963875 c 3.77625,-3.99 5.595,-9.015 5.595,-15.075 0,-6.06 -1.81875,-11.085 -5.595,-14.9275 -3.63625,-3.99125 -8.25375,-5.91125 -13.84875,-5.91125 -5.59625,0 -10.2125,1.92 -13.84875,5.91125 -3.6375,3.8425 -5.45625,8.8675 -5.45625,14.9275 0,6.06 1.81875,11.085 5.45625,15.075 3.63625,3.8425 8.2525,5.76375 13.84875,5.76375 5.595,0 10.2125,-1.92125 13.84875,-5.76375 m 5.595,-52.025 h 18.04625 v 73.899994 h -18.04625 v -8.72124 c -5.455,7.2425 -13.01,10.78999 -22.80125,10.78999 -9.3725,0 -17.34625,-3.695 -24.06125,-11.23374 -6.57375,-7.537504 -9.93125,-16.848754 -9.93125,-27.785004 0,-10.78875 3.3575,-20.10125 9.93125,-27.63875 6.715,-7.5375 14.68875,-11.38 24.06125,-11.38 9.79125,0 17.34625,3.5475 22.80125,10.78875 z m 78.76175,35.62 c 5.315,3.99 7.97375,9.60625 7.83375,16.7 0,7.538754 -2.65875,13.450004 -8.11375,17.588754 -5.45625,3.99124 -12.03,6.06 -20.00375,6.06 -14.40875,0 -24.20125,-5.9125 -29.3775,-17.588754 l 15.66875,-9.31 c 2.0975,6.35375 6.71375,9.606254 13.70875,9.606254 6.43375,0 9.6525,-2.070004 9.6525,-6.356254 0,-3.10375 -4.1975,-5.91125 -12.73,-8.1275 -3.21875,-0.8875 -5.87625,-1.77375 -7.97375,-2.51375 -2.9375,-1.18125 -5.455,-2.5125 -7.55375,-4.1375 -5.17625,-3.99 -7.83375,-9.3125 -7.83375,-16.11 0,-7.2425 2.5175,-13.00625 7.55375,-17.145 5.17625,-4.28625 11.47,-6.355 19.025,-6.355 12.03,0 20.84375,5.1725 26.5775,15.66625 l -15.38625,8.8675 c -2.23875,-5.02375 -6.015,-7.53625 -11.19125,-7.53625 -5.45625,0 -8.11375,2.06875 -8.11375,6.05875 0,3.10375 4.19625,5.91125 12.73,8.12875 6.575,1.4775 11.75,3.695 15.5275,6.50375 m 57.35713,-17.2925 h -15.8075 v 30.7425 c 0,3.695 1.39999,5.91125 4.0575,6.945 1.95875,0.74 5.875,0.8875 11.75,0.59125 v 17.293754 c -12.16875,1.4775 -20.98251,0.295 -26.15875,-3.69625 -5.17501,-3.8425 -7.69376,-10.93625 -7.69376,-21.133754 v -30.7425 h -12.17 v -18.3275 h 12.17 v -14.9275 l 18.04501,-5.76375 v 20.69125 h 15.8075 z m 57.49824,33.254375 c 3.6375,-3.84375 5.455,-8.72125 5.455,-14.6325 0,-5.91125 -1.8175,-10.78875 -5.455,-14.63125 -3.63749,-3.84375 -8.11374,-5.76375 -13.56999,-5.76375 -5.455,0 -9.93125,1.92 -13.56876,5.76375 -3.4975,3.99 -5.31625,8.8675 -5.31625,14.63125 0,5.765 1.81875,10.6425 5.31625,14.6325 3.6375,3.8425 8.11375,5.76375 13.56876,5.76375 5.45625,0 9.9325,-1.92125 13.56999,-5.76375 m -39.86874,13.153749 c -7.13376,-7.537499 -10.63126,-16.701249 -10.63126,-27.786249 0,-10.9375 3.4975,-20.1 10.63126,-27.6375 7.13375,-7.5375 15.9475,-11.38 26.29875,-11.38 10.3525,0 19.165,3.8425 26.3,11.38 7.135,7.5375 10.77125,16.84875 10.77125,27.6375 0,10.9375 -3.63625,20.24875 -10.77125,27.786249 -7.135,7.53875 -15.8075,11.2325 -26.3,11.2325 -10.49125,0 -19.16501,-3.69375 -26.29875,-11.2325 M 536.17126,93.429636 c 3.6375,-3.99 5.455,-9.015 5.455,-15.075 0,-6.06 -1.8175,-11.085 -5.455,-14.9275 -3.63625,-3.99125 -8.25375,-5.91125 -13.84875,-5.91125 -5.59625,0 -10.2125,1.92 -13.98875,5.91125 -3.63625,3.8425 -5.45625,8.8675 -5.45625,14.9275 0,6.06 1.82,11.085 5.45625,15.075 3.77625,3.8425 8.5325,5.76375 13.98875,5.76375 5.595,0 10.2125,-1.92125 13.84875,-5.76375 m 5.455,-81.585 h 18.04625 V 115.30463 h -18.04625 v -8.72124 c -5.315,7.2425 -12.87,10.78999 -22.66125,10.78999 -9.3725,0 -17.485,-3.695 -24.2,-11.23374 -6.575,-7.537504 -9.9325,-16.848754 -9.9325,-27.785004 0,-10.78875 3.3575,-20.10125 9.9325,-27.63875 6.715,-7.5375 14.8275,-11.38 24.2,-11.38 9.79125,0 17.34625,3.5475 22.66125,10.78875 z m 81.42,81.141875 c 3.63625,-3.84375 5.455,-8.72125 5.455,-14.6325 0,-5.91125 -1.81875,-10.78875 -5.455,-14.63125 -3.6375,-3.84375 -8.11375,-5.76375 -13.57,-5.76375 -5.455,0 -9.9325,1.92 -13.56875,5.76375 -3.49875,3.99 -5.31625,8.8675 -5.31625,14.63125 0,5.765 1.8175,10.6425 5.31625,14.6325 3.63625,3.8425 8.11375,5.76375 13.56875,5.76375 5.45625,0 9.9325,-1.92125 13.57,-5.76375 m -39.86875,13.153749 c -7.135,-7.537499 -10.63125,-16.701249 -10.63125,-27.786249 0,-10.9375 3.49625,-20.1 10.63125,-27.6375 7.135,-7.5375 15.9475,-11.38 26.29875,-11.38 10.3525,0 19.165,3.8425 26.3,11.38 7.135,7.5375 10.77125,16.84875 10.77125,27.6375 0,10.9375 -3.63625,20.24875 -10.77125,27.786249 -7.135,7.53875 -15.8075,11.2325 -26.3,11.2325 -10.49125,0 -19.16375,-3.69375 -26.29875,-11.2325 M 724.60876,69.929886 V 115.30363 H 706.56251 V 72.294886 c 0,-4.8775 -1.25875,-8.5725 -3.77625,-11.38 -2.37875,-2.5125 -5.73625,-3.84375 -10.0725,-3.84375 -10.2125,0 -15.3875,6.06 -15.3875,18.3275 V 115.30363 H 659.28001 V 41.404886 h 18.04625 v 8.27625 c 4.33625,-6.94625 11.19,-10.345 20.84375,-10.345 7.69375,0 13.98875,2.66 18.885,8.12875 5.035,5.46875 7.55375,12.85875 7.55375,22.465" />
  </g>
</svg>
